<svg width="27" height="25" viewBox="0 0 27 25" fill="none" xmlns="http://www.w3.org/2000/svg">
<path d="M5.34375 0.625C4.14199 0.625 2.98945 1.1024 2.13967 1.95217C1.2899 2.80195 0.8125 3.95449 0.8125 5.15625V14.2188C0.8125 14.8138 0.929704 15.403 1.15742 15.9528C1.38514 16.5025 1.71891 17.0021 2.13967 17.4228C2.98945 18.2726 4.14199 18.75 5.34375 18.75H6.25V22.2699C6.24994 22.6111 6.34815 22.9451 6.53289 23.2319C6.71763 23.5188 6.98109 23.7464 7.29176 23.8875C7.60242 24.0286 7.94715 24.0772 8.28473 24.0275C8.6223 23.9779 8.93843 23.8321 9.19531 23.6075L14.747 18.75H21.6562C22.2513 18.75 22.8405 18.6328 23.3903 18.4051C23.94 18.1774 24.4396 17.8436 24.8603 17.4228C25.2811 17.0021 25.6149 16.5025 25.8426 15.9528C26.0703 15.403 26.1875 14.8138 26.1875 14.2188V5.15625C26.1875 3.95449 25.7101 2.80195 24.8603 1.95217C24.0106 1.1024 22.858 0.625 21.6562 0.625H5.34375Z" fill="#4075FF"/>
</svg>
