<svg width="70" height="70" viewBox="0 0 70 70" fill="none" xmlns="http://www.w3.org/2000/svg">
<g filter="url(#filter0_d)">
<path d="M6 21C6 11.6112 13.6112 4 23 4H45C54.3888 4 62 11.6112 62 21V43C62 52.3888 54.3888 60 45 60H23C13.6112 60 6 52.3888 6 43V21Z" fill="white"/>
</g>
<path d="M24.4167 22.4165H20.5833C19.5667 22.4165 18.5916 22.8204 17.8728 23.5393C17.1539 24.2582 16.75 25.2332 16.75 26.2498V41.5832H20.5833V33.9165H24.4167V41.5832H28.25V26.2498C28.25 25.2332 27.8461 24.2582 27.1272 23.5393C26.4084 22.8204 25.4333 22.4165 24.4167 22.4165ZM24.4167 30.0832H20.5833V26.2498H24.4167V30.0832ZM37.8333 22.4165H30.1667V41.5832H34V33.9165H37.8333C38.85 33.9165 39.825 33.5126 40.5439 32.7937C41.2628 32.0749 41.6667 31.0998 41.6667 30.0832V26.2498C41.6667 25.2332 41.2628 24.2582 40.5439 23.5393C39.825 22.8204 38.85 22.4165 37.8333 22.4165ZM37.8333 30.0832H34V26.2498H37.8333V30.0832ZM49.3333 26.2498V37.7498H51.25V41.5832H43.5833V37.7498H45.5V26.2498H43.5833V22.4165H51.25V26.2498H49.3333Z" fill="#5845CF"/>
<defs>
<filter id="filter0_d" x="0" y="0" width="70" height="70" filterUnits="userSpaceOnUse" color-interpolation-filters="sRGB">
<feFlood flood-opacity="0" result="BackgroundImageFix"/>
<feColorMatrix in="SourceAlpha" type="matrix" values="0 0 0 0 0 0 0 0 0 0 0 0 0 0 0 0 0 0 127 0" result="hardAlpha"/>
<feOffset dx="1" dy="3"/>
<feGaussianBlur stdDeviation="3.5"/>
<feColorMatrix type="matrix" values="0 0 0 0 0 0 0 0 0 0 0 0 0 0 0 0 0 0 0.09 0"/>
<feBlend mode="normal" in2="BackgroundImageFix" result="effect1_dropShadow"/>
<feBlend mode="normal" in="SourceGraphic" in2="effect1_dropShadow" result="shape"/>
</filter>
</defs>
</svg>
