<svg width="70" height="70" viewBox="0 0 70 70" fill="none" xmlns="http://www.w3.org/2000/svg">
<g filter="url(#filter0_d)">
<path d="M6 21C6 11.6112 13.6112 4 23 4H45C54.3888 4 62 11.6112 62 21V43C62 52.3888 54.3888 60 45 60H23C13.6112 60 6 52.3888 6 43V21Z" fill="white"/>
</g>
<path d="M35.5 43L35.5 38.23C37.24 37.6 38.5 35.95 38.5 34C38.5 32.05 37.24 30.4 35.5 29.77L35.5 25C35.5 24.505 35.65 22 38.5 22L40 22C42.745 22 43 24.31 43 25L43 40.27C41.26 40.9 40 42.55 40 44.5C40 45.6935 40.4741 46.8381 41.318 47.682C42.1619 48.5259 43.3065 49 44.5 49C45.6935 49 46.8381 48.5259 47.682 47.682C48.5259 46.8381 49 45.6935 49 44.5C49 42.55 47.74 40.9 46 40.27L46 25C46 22.585 44.41 19 40 19L38.5 19C34.09 19 32.5 22.585 32.5 25L32.5 29.77C30.76 30.4 29.5 32.05 29.5 34C29.5 35.95 30.76 37.6 32.5 38.23L32.5 43C32.5 43.495 32.35 46 29.5 46L28 46C25.255 46 25 43.69 25 43L25 27.73C26.74 27.1 28 25.45 28 23.5C28 22.3065 27.5259 21.1619 26.682 20.318C25.8381 19.4741 24.6935 19 23.5 19C22.3065 19 21.1619 19.4741 20.318 20.318C19.4741 21.1619 19 22.3065 19 23.5C19 25.45 20.26 27.1 22 27.73L22 43C22 45.415 23.605 49 28 49L29.5 49C33.895 49 35.5 45.415 35.5 43ZM46 44.5C46 44.8978 45.842 45.2794 45.5607 45.5607C45.2794 45.842 44.8978 46 44.5 46C44.1022 46 43.7206 45.842 43.4393 45.5607C43.158 45.2794 43 44.8978 43 44.5C43 44.1022 43.158 43.7206 43.4393 43.4393C43.7206 43.158 44.1022 43 44.5 43C44.8978 43 45.2794 43.158 45.5607 43.4393C45.842 43.7206 46 44.1022 46 44.5ZM22 23.5C22 23.1022 22.158 22.7206 22.4393 22.4393C22.7206 22.158 23.1022 22 23.5 22C23.8978 22 24.2794 22.158 24.5607 22.4393C24.842 22.7206 25 23.1022 25 23.5C25 23.8978 24.842 24.2794 24.5607 24.5607C24.2794 24.842 23.8978 25 23.5 25C23.1022 25 22.7206 24.842 22.4393 24.5607C22.158 24.2794 22 23.8978 22 23.5Z" fill="#5845CF"/>
<defs>
<filter id="filter0_d" x="0" y="0" width="70" height="70" filterUnits="userSpaceOnUse" color-interpolation-filters="sRGB">
<feFlood flood-opacity="0" result="BackgroundImageFix"/>
<feColorMatrix in="SourceAlpha" type="matrix" values="0 0 0 0 0 0 0 0 0 0 0 0 0 0 0 0 0 0 127 0" result="hardAlpha"/>
<feOffset dx="1" dy="3"/>
<feGaussianBlur stdDeviation="3.5"/>
<feColorMatrix type="matrix" values="0 0 0 0 0 0 0 0 0 0 0 0 0 0 0 0 0 0 0.09 0"/>
<feBlend mode="normal" in2="BackgroundImageFix" result="effect1_dropShadow"/>
<feBlend mode="normal" in="SourceGraphic" in2="effect1_dropShadow" result="shape"/>
</filter>
</defs>
</svg>
