<svg width="70" height="70" viewBox="0 0 70 70" fill="none" xmlns="http://www.w3.org/2000/svg">
<g filter="url(#filter0_d)">
<path d="M6 21C6 11.6112 13.6112 4 23 4H45C54.3888 4 62 11.6112 62 21V43C62 52.3888 54.3888 60 45 60H23C13.6112 60 6 52.3888 6 43V21Z" fill="white"/>
</g>
<g clip-path="url(#clip0)">
<path d="M47.0067 21.0171L41.2466 18.246C40.9208 18.0882 40.5539 18.0358 40.197 18.0962C39.8401 18.1565 39.5108 18.3267 39.2551 18.5829L28.2222 28.6497L23.4141 25.0036C23.1976 24.8381 22.9298 24.7538 22.6575 24.7655C22.3851 24.7771 22.1256 24.884 21.924 25.0675L20.384 26.471C20.2636 26.5798 20.1673 26.7125 20.1013 26.8607C20.0352 27.0089 20.0009 27.1692 20.0005 27.3315C20.0001 27.4937 20.0336 27.6542 20.0989 27.8027C20.1642 27.9513 20.2598 28.0845 20.3796 28.1939L24.5498 31.9992L20.3796 35.8046C20.2598 35.914 20.1642 36.0472 20.0989 36.1957C20.0336 36.3443 20.0001 36.5048 20.0005 36.667C20.0009 36.8293 20.0352 36.9896 20.1013 37.1378C20.1673 37.286 20.2636 37.4187 20.384 37.5275L21.924 38.931C22.1256 39.1145 22.3851 39.2213 22.6575 39.233C22.9298 39.2447 23.1976 39.1604 23.4141 38.9949L28.2222 35.3444L39.2603 45.4156C39.5152 45.6718 39.8437 45.842 40.2 45.9023C40.5562 45.9627 40.9224 45.9104 41.2475 45.7525L47.0128 42.977C47.3097 42.8344 47.5602 42.6106 47.7351 42.3315C47.9101 42.0525 48.0025 41.7296 48.0016 41.4002V22.5921C48.0016 21.9219 47.614 21.3067 47.0085 21.0154L47.0067 21.0171ZM41.0042 38.3579L32.6278 32.0001L41.0042 25.6424V38.3579Z" fill="#5845CF"/>
</g>
<defs>
<filter id="filter0_d" x="0" y="0" width="70" height="70" filterUnits="userSpaceOnUse" color-interpolation-filters="sRGB">
<feFlood flood-opacity="0" result="BackgroundImageFix"/>
<feColorMatrix in="SourceAlpha" type="matrix" values="0 0 0 0 0 0 0 0 0 0 0 0 0 0 0 0 0 0 127 0" result="hardAlpha"/>
<feOffset dx="1" dy="3"/>
<feGaussianBlur stdDeviation="3.5"/>
<feColorMatrix type="matrix" values="0 0 0 0 0 0 0 0 0 0 0 0 0 0 0 0 0 0 0.09 0"/>
<feBlend mode="normal" in2="BackgroundImageFix" result="effect1_dropShadow"/>
<feBlend mode="normal" in="SourceGraphic" in2="effect1_dropShadow" result="shape"/>
</filter>
<clipPath id="clip0">
<rect width="28" height="28" fill="white" transform="translate(20 18)"/>
</clipPath>
</defs>
</svg>
